Coordinates
version=1
nRows=49
nColumns=12
inDegrees=yes

Units are S.I. units (second, meters, Newtons, ...)
Angles are in degrees

endheader
time	SC_y	SC_z	SC_x	AC_y	AC_z	AC_x	GH_y	GH_z	GH_yy	EL_x	PS_y
       0.0              -19.37           28.6          24.63          36.17          1.634         -4.809          132.7          10.21          114.8          80.37          115.3
   0.03844              -19.37          28.59          24.63          36.17          1.633         -4.808          132.7          10.21          114.8          80.38          115.3
   0.07688              -19.37          28.59          24.62          36.17          1.631         -4.806          132.7          10.21          114.8          80.39          115.3
    0.1153              -19.36          28.59          24.62          36.18          1.628         -4.804          132.7          10.21          114.8          80.39          115.3
    0.1538              -19.36          28.58          24.62          36.18          1.626         -4.802          132.6          10.22          114.8           80.4          115.4
    0.1922              -19.36          28.58          24.62          36.19          1.624           -4.8          132.6          10.22          114.8          80.41          115.4
    0.2306              -19.36          28.57          24.62          36.19          1.621         -4.798          132.6          10.22          114.8          80.42          115.4
    0.2691              -19.36          28.57          24.62          36.19          1.619         -4.796          132.6          10.22          114.8          80.43          115.4
    0.3075              -19.36          28.57          24.62           36.2          1.616         -4.794          132.6          10.22          114.7          80.44          115.4
     0.346              -19.36          28.56          24.61           36.2          1.612         -4.791          132.6          10.22          114.7          80.45          115.4
    0.3844              -19.36          28.55          24.61          36.21          1.609         -4.788          132.6          10.23          114.7          80.47          115.4
    0.4228              -19.35          28.55          24.61          36.22          1.605         -4.785          132.6          10.23          114.7          80.48          115.4
    0.4613              -19.35          28.54          24.61          36.22          1.602         -4.782          132.6          10.23          114.7           80.5          115.4
    0.4997              -19.35          28.54           24.6          36.23          1.597         -4.778          132.6          10.23          114.7          80.51          115.4
    0.5382              -19.35          28.53           24.6          36.24          1.593         -4.775          132.5          10.23          114.6          80.53          115.5
    0.5766              -19.35          28.52           24.6          36.25          1.588          -4.77          132.5          10.24          114.6          80.55          115.5
     0.615              -19.34          28.51           24.6          36.25          1.582         -4.766          132.5          10.24          114.6          80.57          115.5
    0.6535              -19.34           28.5          24.59          36.26          1.577         -4.761          132.5          10.24          114.6          80.59          115.5
    0.6919              -19.34          28.49          24.59          36.27           1.57         -4.756          132.5          10.25          114.5          80.62          115.5
    0.7304              -19.34          28.48          24.58          36.29          1.563          -4.75          132.5          10.25          114.5          80.64          115.5
    0.7688              -19.33          28.47          24.58           36.3          1.555         -4.743          132.4          10.26          114.5          80.67          115.6
    0.8072              -19.33          28.45          24.57          36.31          1.547         -4.736          132.4          10.26          114.4           80.7          115.6
    0.8457              -19.32          28.44          24.57          36.33          1.538         -4.728          132.4          10.27          114.4          80.74          115.6
    0.8841              -19.32          28.42          24.56          36.34          1.527          -4.72          132.4          10.27          114.3          80.78          115.7
    0.9226              -19.32           28.4          24.55          36.36          1.516          -4.71          132.3          10.28          114.3          80.82          115.7
     0.961              -19.31          28.38          24.55          36.38          1.503         -4.699          132.3          10.29          114.2          80.87          115.7
    0.9994               -19.3          28.36          24.54          36.41          1.488         -4.687          132.2          10.29          114.1          80.93          115.8
     1.038               -19.3          28.33          24.53          36.44          1.472         -4.674          132.2           10.3          114.0          80.99          115.8
     1.076              -19.29           28.3          24.52          36.47          1.454         -4.658          132.1          10.31          114.0          81.06          115.9
     1.115              -19.28          28.27           24.5           36.5          1.433         -4.641          132.1          10.33          113.8          81.14          115.9
     1.153              -19.27          28.23          24.49          36.54          1.409         -4.621          132.0          10.34          113.7          81.23          116.0
     1.192              -19.26          28.18          24.47          36.58          1.382         -4.598          131.9          10.36          113.6          81.33          116.1
      1.23              -19.24          28.13          24.45          36.64          1.351         -4.572          131.8          10.37          113.4          81.45          116.2
     1.269              -19.23          28.07          24.43           36.7          1.314         -4.541          131.7           10.4          113.3          81.59          116.3
     1.307              -19.21           28.0          24.41          36.77          1.271         -4.506          131.6          10.42          113.1          81.75          116.4
     1.345              -19.19          27.92          24.37          36.85          1.221         -4.463          131.4          10.45          112.8          81.95          116.6
     1.384              -19.16          27.82          24.34          36.95          1.161         -4.413          131.3          10.48          112.5          82.17          116.8
     1.422              -19.13           27.7          24.29          37.07          1.089         -4.353          131.0          10.53          112.2          82.45          117.0
     1.461              -19.09          27.56          24.24          37.21          1.002          -4.28          130.8          10.58          111.7          82.78          117.2
     1.499              -19.04          27.38          24.18          37.38         0.8959         -4.192          130.5          10.64          111.2          83.18          117.6
     1.538              -18.99          27.17           24.1           37.6         0.7648         -4.082          130.1          10.71          110.6          83.68          118.0
     1.576              -18.92           26.9           24.0          37.87         0.6014         -3.945          129.6          10.81          109.8          84.31          118.4
     1.614              -18.83          26.56          23.87           38.2         0.3956         -3.773          129.0          10.93          108.7          85.09          119.1
     1.653              -18.71          26.13          23.71          38.64         0.1339         -3.554          128.2          11.08          107.5          86.09          119.9
     1.691              -18.57          25.59          23.51          39.19        -0.2011         -3.274          127.2          11.27          105.8          87.36          120.9
      1.73              -18.38          24.88          23.25          39.89         -0.631         -2.914          125.9          11.52          103.7           89.0          122.2
     1.768              -18.14          23.98          22.91           40.8          -1.18         -2.455          124.2          11.84          101.0          91.09          123.8
     1.807              -17.84          22.85          22.49          41.93          -1.87         -1.878          122.2          12.24           97.6          93.72          125.9
     1.845              -17.47          21.47          21.98          43.31         -2.712         -1.174          119.6          12.72          93.46          96.92          128.5
